<svg width="12" height="16" viewBox="0 0 12 16" fill="none" xmlns="http://www.w3.org/2000/svg">
<path d="M0 7.514H12L0 0V16H12L0 4V7.514Z" fill="#DC143C"/>
<path d="M3.00013 7.0859C4.32013 7.0859 5.39013 6.0159 5.39013 4.6959C5.18233 5.22475 4.80449 5.66943 4.31613 5.9599L4.11213 5.8079L4.51213 5.5079L4.02813 5.3839L4.28413 4.9499L3.78413 5.0219L3.85813 4.5259L3.42413 4.7859L3.30013 4.2959L3.00013 4.6959L2.70013 4.2959L2.57413 4.7839L2.14213 4.5279L2.21613 5.0279L1.71613 4.9539L1.97613 5.3879L1.48813 5.5119L1.88813 5.8119L1.68813 5.9659C1.21413 5.6859 0.828129 5.2539 0.612129 4.7019C0.612129 6.0219 1.68213 7.0919 3.00213 7.0919L3.00013 7.0859ZM1.84813 10.6059L0.776129 10.4739L1.42613 11.3339L0.432129 11.7579L1.42613 12.1779L0.776129 13.0379L1.84813 12.9059L1.71613 13.9799L2.57613 13.3299L3.00013 14.3259L3.42013 13.3299L4.28413 13.9819L4.15213 12.9099L5.22413 13.0439L4.57413 12.1839L5.56813 11.7639L4.57413 11.3399L5.22413 10.4799L4.15213 10.6099L4.28413 9.5379L3.42413 10.1879L3.00013 9.1899L2.58013 10.1839L1.71613 9.5339L1.84813 10.6059Z" fill="white"/>
</svg>
